<?xml version="1.0" standalone="no"?>
<!DOCTYPE svg PUBLIC "-//W3C//DTD SVG 20010904//EN"
 "http://www.w3.org/TR/2001/REC-SVG-20010904/DTD/svg10.dtd">
<svg version="1.0" xmlns="http://www.w3.org/2000/svg"
 width="493.000000pt" height="493.000000pt" viewBox="0 0 493.000000 493.000000"
 preserveAspectRatio="xMidYMid meet">
<metadata>
Created by potrace 1.14, written by Peter Selinger 2001-2017
</metadata>
<g transform="translate(0.000000,493.000000) scale(0.100000,-0.100000)"
fill="#000000" stroke="none">
<path d="M841 4503 c-17 -14 -30 -57 -61 -203 -22 -102 -65 -273 -96 -380 -99
-343 -99 -340 -21 -361 71 -19 84 -8 157 129 143 270 240 351 483 404 93 19
138 22 494 26 456 4 426 11 438 -100 3 -34 5 -751 3 -1593 -4 -1431 -5 -1535
-22 -1605 -21 -89 -38 -124 -80 -168 -54 -58 -122 -76 -341 -91 -164 -11 -169
-15 -162 -99 2 -32 10 -58 18 -63 19 -12 123 -11 495 2 233 8 403 8 689 -1
415 -14 435 -14 449 0 17 17 20 124 4 138 -8 6 -68 16 -134 22 -282 25 -341
59 -391 225 -17 56 -18 158 -21 1671 -2 1582 -2 1612 17 1635 l19 24 399 0
c376 0 404 -1 513 -23 87 -18 140 -36 218 -73 90 -44 107 -56 133 -97 34 -54
73 -170 90 -269 18 -108 30 -130 76 -137 39 -7 86 4 97 23 4 5 8 90 11 188 5
222 19 365 51 550 30 171 29 207 -4 211 -39 6 -77 -16 -126 -73 -34 -39 -61
-60 -103 -77 l-58 -23 -1410 -3 c-916 -1 -1436 1 -1485 8 -44 6 -98 22 -130
38 -45 22 -61 37 -88 85 -43 74 -81 93 -121 60z"/>
</g>
</svg>
